<?xml version="1.0" standalone="no"?>
<!DOCTYPE svg PUBLIC "-//W3C//DTD SVG 20010904//EN"
 "http://www.w3.org/TR/2001/REC-SVG-20010904/DTD/svg10.dtd">
<svg version="1.0" xmlns="http://www.w3.org/2000/svg"
 width="252.000000pt" height="140.000000pt" viewBox="0 0 252.000000 140.000000"
 preserveAspectRatio="xMidYMid meet">
<metadata>
Created by potrace 1.10, written by Peter Selinger 2001-2011
</metadata>
<g transform="translate(0.000000,140.000000) scale(0.100000,-0.100000)"
fill="#000000" stroke="none">
<path d="M1217 1335 c-3 -22 -9 -66 -13 -97 -3 -32 -9 -58 -13 -58 -3 0 -15 7
-25 15 -11 8 -27 15 -35 15 -9 0 0 -8 19 -18 26 -12 43 -33 64 -76 25 -52 26
-60 12 -68 -9 -5 -16 -18 -16 -28 0 -13 -5 -17 -14 -14 -8 3 -17 0 -21 -6 -5
-8 -11 -8 -21 1 -10 8 -18 8 -26 1 -21 -17 -39 10 -22 33 18 25 18 54 -1 60
-48 15 -50 18 -20 25 27 6 28 8 10 15 -11 4 -28 15 -38 23 -16 15 -15 17 20
33 30 15 33 18 16 19 -14 0 -23 6 -23 15 0 18 -56 82 -64 74 -3 -3 3 -23 14
-44 24 -47 25 -64 5 -72 -14 -5 -14 -7 0 -23 9 -10 17 -24 19 -32 1 -7 14 -26
29 -42 31 -33 33 -44 12 -52 -36 -14 -63 5 -80 56 -21 64 -51 85 -105 76 -33
-5 -41 -3 -54 16 -9 12 -16 18 -16 12 0 -5 6 -19 14 -30 13 -19 11 -26 -22
-76 -34 -52 -39 -55 -57 -42 -22 17 -79 19 -70 3 4 -6 14 -8 22 -4 17 6 69
-23 59 -32 -3 -4 -15 2 -26 12 -11 10 -23 16 -26 12 -3 -3 5 -13 19 -22 l25
-16 -18 -61 c-11 -33 -21 -62 -23 -64 -2 -2 -35 7 -73 21 l-69 26 30 -25 c18
-15 38 -23 50 -21 11 3 14 2 6 -1 -11 -5 -8 -11 10 -25 l24 -19 -22 -19 c-30
-25 -29 -29 9 -33 33 -3 45 -22 30 -46 -7 -10 -15 -9 -42 5 -48 24 -120 28
-145 9 -19 -15 -18 -15 24 -16 52 0 131 -35 131 -57 0 -8 -7 -30 -16 -48 -13
-29 -22 -34 -77 -46 l-62 -13 140 -16 c77 -9 145 -14 150 -11 14 8 -67 19
-137 20 -36 1 -58 5 -58 12 0 7 12 9 36 5 19 -4 41 -3 47 2 7 6 32 15 57 21
l45 10 -47 -5 c-53 -6 -62 6 -25 30 18 13 30 13 60 4 25 -8 33 -14 25 -20 -9
-5 -6 -8 10 -8 12 0 22 -3 23 -7 0 -5 2 -20 4 -36 3 -20 -1 -27 -12 -27 -9 0
-13 -3 -10 -7 12 -12 -58 -51 -130 -72 -39 -12 -77 -29 -84 -38 -12 -15 -12
-16 6 -9 11 4 40 10 65 13 53 6 66 13 24 13 -24 1 -19 4 24 19 30 10 67 28 84
41 33 24 35 24 40 -5 2 -16 -4 -21 -32 -25 -23 -3 -36 -11 -38 -23 -2 -9 1
-17 7 -17 6 0 10 5 8 12 -1 7 17 16 44 21 l47 9 -15 30 c-19 37 -14 168 8 212
21 44 45 55 63 31 14 -20 15 -19 47 10 21 20 33 26 36 18 9 -25 34 -13 49 23
15 35 16 36 35 18 16 -15 19 -25 13 -63 -4 -25 -11 -54 -16 -63 -6 -13 -5 -18
6 -18 15 0 29 -27 20 -41 -3 -5 -15 -9 -28 -9 -25 0 -46 -17 -46 -37 0 -18 29
-16 36 2 4 8 12 15 20 15 8 0 19 9 26 20 16 25 28 26 28 1 0 -16 24 -30 53
-31 18 0 4 20 -18 26 -30 7 -32 18 -6 36 10 7 20 21 22 32 3 15 7 14 25 -11
11 -15 23 -42 27 -60 6 -29 4 -32 -20 -35 -27 -3 -53 -32 -40 -45 4 -4 17 -2
27 5 21 13 27 3 9 -15 -8 -8 -3 -13 18 -17 36 -7 104 -15 81 -9 -12 3 -18 14
-18 34 0 29 2 30 30 24 23 -5 30 -3 30 9 0 11 -9 16 -29 16 -17 0 -33 5 -36
11 -4 6 0 9 11 7 15 -2 19 3 17 25 l-2 27 34 -25 c18 -15 36 -32 39 -40 8 -22
76 -36 116 -25 18 5 36 8 38 5 7 -7 -8 -75 -17 -75 -4 0 -22 5 -38 11 -21 7
-50 7 -89 0 l-59 -9 65 0 c113 0 200 -13 200 -30 0 -12 -9 -13 -52 -6 -29 4
-98 8 -153 9 -55 1 -126 7 -157 14 -50 11 -66 10 -120 -5 -35 -10 -115 -20
-178 -23 -67 -4 -123 -12 -135 -19 -18 -12 -17 -13 10 -7 17 4 85 10 152 14
70 5 129 14 137 21 19 15 116 16 143 2 12 -7 60 -10 114 -8 101 3 149 -2 149
-15 0 -4 -14 -4 -30 1 -17 5 -52 5 -79 1 -26 -4 -56 -7 -67 -5 -138 16 -197
16 -279 -1 -49 -9 -109 -15 -134 -12 -25 3 -55 2 -66 -2 -17 -7 -17 -8 7 -14
14 -4 34 -10 45 -13 15 -5 15 -4 3 5 -11 8 0 11 49 11 35 0 91 7 125 16 47 12
78 14 136 8 105 -11 265 -12 332 -1 48 8 57 13 61 33 4 22 1 24 -33 24 -33 0
-37 3 -33 20 5 18 8 18 32 6 14 -7 52 -21 84 -30 32 -9 60 -23 64 -31 3 -8 12
-15 21 -15 35 0 -43 48 -114 70 -119 36 -111 41 85 60 57 6 113 10 125 10 42
1 -7 17 -69 23 -40 4 -50 3 -30 -2 17 -5 28 -10 25 -11 -17 -8 -210 -24 -210
-17 0 5 10 17 23 27 17 15 34 18 77 15 l55 -4 -60 12 c-64 13 -82 21 -104 50
-12 15 -11 17 3 17 11 0 14 -5 10 -12 -5 -8 -2 -9 12 -3 22 10 64 10 114 -1
32 -6 34 -5 21 10 -12 14 -10 16 13 16 38 0 105 29 117 51 12 23 9 23 -27 4
-35 -18 -96 -18 -144 0 -29 10 -32 14 -17 20 9 4 29 5 42 3 30 -6 32 8 4 38
l-20 22 65 48 c36 26 66 49 66 50 0 2 -30 -9 -67 -23 -101 -38 -105 -39 -131
-4 l-22 30 50 50 c30 30 50 59 50 72 0 21 -3 20 -33 -13 -52 -57 -107 -63
-107 -12 0 14 -6 27 -14 30 -28 11 -26 50 6 110 l31 59 -44 -42 -44 -42 -57
27 c-52 24 -57 29 -52 53 6 30 -4 79 -16 79 -4 0 -10 -17 -14 -38 -4 -26 -17
-49 -41 -70 -33 -31 -35 -36 -35 -97 0 -63 -1 -65 -25 -65 -14 0 -25 1 -25 3
-1 1 -13 76 -29 167 -23 140 -28 159 -34 125z m31 -177 c11 -60 15 -108 11
-108 -4 0 -17 26 -29 57 -18 47 -20 68 -14 122 4 37 9 59 11 51 2 -8 11 -63
21 -122z m-203 91 c9 -17 15 -37 13 -45 -2 -8 -10 5 -19 30 -19 53 -16 59 6
15z m379 -13 c-3 -14 -12 -26 -20 -26 -10 0 -9 6 4 29 20 35 26 34 16 -3z
m150 -88 c-10 -20 -19 -28 -22 -20 -2 7 4 22 14 33 25 27 27 24 8 -13z m-509
-8 c3 -5 1 -10 -4 -10 -6 0 -11 5 -11 10 0 6 2 10 4 10 3 0 8 -4 11 -10z m45
-65 c0 -8 -2 -15 -4 -15 -2 0 -6 7 -10 15 -3 8 -1 15 4 15 6 0 10 -7 10 -15z
m393 3 c79 -41 105 -88 50 -88 -22 0 -25 -4 -21 -30 4 -29 -15 -50 -28 -29 -3
6 -11 3 -18 -7 -7 -9 -19 -15 -27 -12 -8 3 -25 1 -38 -4 -17 -6 -31 -4 -47 7
-13 8 -24 11 -24 5 0 -21 -31 -9 -70 26 -22 20 -40 39 -40 43 0 4 30 7 66 7
54 -1 68 2 76 17 5 11 16 16 24 13 9 -3 17 2 21 12 7 20 35 51 46 51 5 1 18
-4 30 -11z m-598 -27 c3 -12 12 -18 20 -15 7 3 16 -3 20 -15 4 -14 15 -21 31
-21 13 0 24 -4 24 -10 0 -5 8 -9 18 -8 39 3 52 -3 52 -23 0 -47 -43 -82 -53
-41 -3 13 -8 10 -23 -15 -22 -38 -40 -37 -37 2 l2 27 -25 -27 c-28 -30 -47
-29 -52 4 -3 21 -5 22 -22 6 -23 -21 -43 -10 -36 20 5 19 2 22 -19 17 -42 -8
-31 29 15 56 22 12 46 32 53 42 15 25 24 25 32 1z m788 -52 c-22 -23 -46 -38
-52 -35 -18 11 -13 26 8 26 11 0 33 11 48 25 44 38 42 29 -4 -16z m107 -103
c0 -12 -71 -46 -82 -40 -8 5 2 14 28 25 41 18 54 22 54 15z m-1095 -36 c3 -5
2 -10 -4 -10 -5 0 -13 5 -16 10 -3 6 -2 10 4 10 5 0 13 -4 16 -10z m-41 -130
c25 -10 46 -24 46 -30 0 -14 -7 -13 -36 7 -14 9 -47 22 -72 29 -42 11 -44 13
-15 13 17 1 52 -8 77 -19z m1133 -3 c33 0 41 -3 28 -8 -41 -16 -84 -10 -96 14
-11 20 -11 21 4 9 9 -8 38 -14 64 -15z m-221 -21 c10 -8 15 -18 11 -22 -4 -4
-17 2 -29 14 -25 25 -13 30 18 8z m99 4 c3 -5 4 -10 1 -10 -3 0 -8 5 -11 10
-3 6 -4 10 -1 10 3 0 8 -4 11 -10z m-802 -43 c-6 -42 -5 -41 -57 -23 l-39 14
24 13 c57 30 73 38 76 36 1 -2 0 -20 -4 -40z m234 -74 c-4 -3 -10 -3 -14 0 -3
4 0 7 7 7 7 0 10 -3 7 -7z m229 -40 c4 -31 -16 -59 -24 -35 -2 7 -8 10 -13 6
-14 -8 -11 40 3 54 18 18 30 10 34 -25z m-76 2 c-7 -9 -15 -13 -19 -10 -3 3 1
10 9 15 21 14 24 12 10 -5z m-573 -122 c-4 -3 -10 -3 -14 0 -3 4 0 7 7 7 7 0
10 -3 7 -7z"/>
<path d="M1310 551 c0 -5 5 -13 10 -16 6 -3 10 -2 10 4 0 5 -4 13 -10 16 -5 3
-10 2 -10 -4z"/>
<path d="M1098 1173 c7 -3 16 -2 19 1 4 3 -2 6 -13 5 -11 0 -14 -3 -6 -6z"/>
<path d="M1145 586 c-11 -8 -15 -18 -10 -26 5 -9 4 -11 -3 -6 -7 4 -12 1 -12
-8 0 -29 18 -25 29 7 l12 32 19 -25 c19 -25 20 -25 20 -3 0 30 -31 47 -55 29z"/>
<path d="M1150 503 c-19 -8 -62 -19 -95 -23 -60 -7 -60 -7 -13 -9 26 0 71 8
100 18 29 11 62 22 73 24 16 4 15 5 -5 5 -14 1 -41 -6 -60 -15z"/>
<path d="M1895 471 c-3 -17 -14 -32 -23 -34 -13 -4 -12 -5 4 -6 15 -1 23 8 31
34 6 19 7 35 3 35 -5 0 -11 -13 -15 -29z"/>
<path d="M933 483 c9 -2 25 -2 35 0 9 3 1 5 -18 5 -19 0 -27 -2 -17 -5z"/>
<path d="M1947 478 c24 -12 38 -41 28 -58 -8 -13 -61 -13 -161 2 -95 14 -158
4 -383 -56 -213 -58 -248 -58 -431 -1 -174 54 -245 60 -375 29 -82 -19 -108
-15 -103 17 5 36 33 47 59 24 l22 -20 -14 23 c-16 26 -41 28 -63 6 -18 -17
-21 -60 -6 -69 5 -3 10 -24 10 -45 0 -21 4 -42 10 -45 6 -3 7 1 4 9 -5 13 0
15 24 10 17 -3 67 1 113 11 115 23 143 21 245 -13 211 -73 311 -78 517 -26 78
19 153 39 167 45 44 17 129 18 217 4 92 -15 123 -9 123 24 0 10 9 30 20 44 11
14 20 31 20 39 0 22 -30 58 -48 57 -13 0 -12 -3 5 -11z m-199 -88 c5 -13 3
-13 -12 -1 -12 10 -20 11 -28 3 -16 -16 1 -34 24 -26 14 4 18 2 14 -5 -17 -26
-71 5 -59 35 7 19 55 15 61 -6z m92 9 c12 -8 9 -9 -10 -4 -24 6 -24 5 -6 -9
20 -16 20 -16 0 -17 -16 -1 -17 -2 -1 -6 27 -7 20 -21 -8 -15 -18 3 -25 11
-25 26 0 36 20 46 50 25z m-1054 -16 c20 -26 18 -29 -20 -29 -32 0 -33 1 -23
23 12 28 25 29 43 6z m864 -8 c0 -14 -4 -25 -10 -25 -5 0 -10 11 -10 25 0 14
5 25 10 25 6 0 10 -11 10 -25z m-942 -15 c3 -21 2 -22 -12 -11 -14 11 -16 11
-16 -3 0 -21 -9 -20 -27 2 -14 16 -14 16 -9 0 3 -10 2 -18 -3 -18 -10 0 -23
42 -15 49 3 3 13 0 24 -6 15 -10 19 -9 24 3 9 22 30 12 34 -16z m150 -13 c12
-3 10 -5 -5 -6 -19 -1 -23 4 -22 27 1 22 2 23 6 5 2 -12 12 -24 21 -26z m712
17 c0 -9 8 -23 18 -31 16 -12 15 -13 -8 -11 -19 2 -26 10 -28 31 -2 15 1 27 7
27 6 0 11 -7 11 -16z m-610 -20 c14 -37 13 -49 -5 -34 -9 7 -14 19 -11 27 8
19 -4 16 -20 -4 -7 -10 -16 -15 -20 -11 -8 8 23 48 38 48 5 0 13 -12 18 -26z
m550 1 c10 -12 10 -18 0 -30 -16 -19 -31 -19 -55 -1 -16 12 -17 16 -6 30 17
20 45 21 61 1z m-500 -22 c0 -14 2 -14 20 2 20 18 21 18 27 -5 6 -22 7 -22 20
-5 13 19 18 9 7 -19 -8 -20 -34 -21 -34 -1 0 8 -4 15 -10 15 -5 0 -10 -4 -10
-10 0 -21 -28 -9 -32 15 -3 14 -1 25 3 25 5 0 9 -7 9 -17z m400 -8 c0 -8 -9
-15 -20 -15 -11 0 -20 -4 -20 -10 0 -5 -4 -10 -10 -10 -5 0 -10 11 -10 25 0
21 5 25 30 25 20 0 30 -5 30 -15z m-257 -30 c-3 -13 -9 -23 -13 -20 -4 2 -5
16 -3 30 3 13 9 23 13 20 4 -2 5 -16 3 -30z"/>
<path d="M1467 344 c-13 -13 -7 -24 14 -24 11 0 19 5 17 12 -5 14 -22 21 -31
12z"/>
<path d="M1373 313 c4 -3 10 -3 14 0 3 4 0 7 -7 7 -7 0 -10 -3 -7 -7z"/>
<path d="M1703 453 c15 -2 37 -2 50 0 12 2 0 4 -28 4 -27 0 -38 -2 -22 -4z"/>
<path d="M1170 408 c-19 -6 -30 -12 -25 -14 6 -2 30 2 55 10 25 8 36 14 25 14
-11 0 -36 -4 -55 -10z"/>
<path d="M1275 400 c4 -6 15 -8 26 -5 10 4 19 2 19 -3 0 -6 10 -8 23 -6 20 4
20 4 -2 -6 -14 -6 -30 -9 -37 -6 -7 3 -14 0 -16 -5 -4 -13 -132 -13 -173 0
-27 8 -28 9 -6 10 13 1 22 4 19 7 -4 3 -28 2 -55 -2 l-48 -7 75 -18 c103 -25
131 -24 275 13 123 30 168 49 67 28 -36 -8 -62 -8 -89 -1 -49 14 -86 14 -78 1z"/>
<path d="M1003 383 c4 -3 10 -3 14 0 3 4 0 7 -7 7 -7 0 -10 -3 -7 -7z"/>
<path d="M1193 383 c4 -3 10 -3 14 0 3 4 0 7 -7 7 -7 0 -10 -3 -7 -7z"/>
<path d="M1153 373 c4 -3 10 -3 14 0 3 4 0 7 -7 7 -7 0 -10 -3 -7 -7z"/>
<path d="M713 303 c4 -3 10 -3 14 0 3 4 0 7 -7 7 -7 0 -10 -3 -7 -7z"/>
<path d="M673 293 c4 -3 10 -3 14 0 3 4 0 7 -7 7 -7 0 -10 -3 -7 -7z"/>
<path d="M1913 293 c4 -3 10 -3 14 0 3 4 0 7 -7 7 -7 0 -10 -3 -7 -7z"/>
<path d="M633 283 c4 -3 10 -3 14 0 3 4 0 7 -7 7 -7 0 -10 -3 -7 -7z"/>
<path d="M1433 253 c4 -3 10 -3 14 0 3 4 0 7 -7 7 -7 0 -10 -3 -7 -7z"/>
</g>
</svg>
